<svg viewBox="0 0 22 32" fill="none" xmlns="http://www.w3.org/2000/svg">
<path d="M20.3294 13.1705L18.8739 12.8076L20.3294 13.1705ZM14.421 15.4832C13.6172 15.2828 12.8031 15.7719 12.6027 16.5758C12.4023 17.3796 12.8914 18.1937 13.6952 18.3941L14.421 15.4832ZM16.9241 5.4438C16.1203 5.24338 15.3062 5.73254 15.1058 6.53636C14.9054 7.34018 15.3945 8.15427 16.1984 8.35469L16.9241 5.4438ZM15.1906 2.55868C15.391 1.75486 14.9018 0.940772 14.098 0.740357C13.2942 0.539943 12.4801 1.0291 12.2797 1.83292L15.1906 2.55868ZM5.39614 29.4413C5.19573 30.2451 5.68489 31.0592 6.48871 31.2596C7.29252 31.46 8.10662 30.9709 8.30703 30.167L5.39614 29.4413ZM17.8263 23.2099L16.3708 22.847L17.8263 23.2099ZM11.9179 25.5226C11.1141 25.3222 10.3 25.8113 10.0996 26.6152C9.89917 27.419 10.3883 28.2331 11.1921 28.4335L11.9179 25.5226ZM6.52183 4.39614L6.88472 2.94069C6.49871 2.84445 6.09028 2.90549 5.74928 3.11039C5.40827 3.31528 5.16263 3.64725 5.06639 4.03325L6.52183 4.39614ZM8.6688 6.47736C9.47262 6.67777 10.2867 6.18862 10.4871 5.3848C10.6875 4.58098 10.1984 3.76688 9.39457 3.56647L8.6688 6.47736ZM3.66259 26.5562C4.46641 26.7566 5.2805 26.2674 5.48092 25.4636C5.68133 24.6598 5.19218 23.8457 4.38836 23.6453L3.66259 26.5562ZM1.51562 24.4749L0.0601814 24.1121C-0.0360612 24.4981 0.0249791 24.9065 0.229874 25.2475C0.434769 25.5885 0.766735 25.8341 1.15274 25.9304L1.51562 24.4749ZM18.8739 12.8076C18.3831 14.7761 16.3895 15.974 14.421 15.4832L13.6952 18.3941C17.2714 19.2857 20.8932 17.1095 21.7848 13.5334L18.8739 12.8076ZM16.1984 8.35469C18.1668 8.84548 19.3647 10.8391 18.8739 12.8076L21.7848 13.5334C22.6765 9.95725 20.5002 6.33543 16.9241 5.4438L16.1984 8.35469ZM12.2797 1.83292L5.39614 29.4413L8.30703 30.167L15.1906 2.55868L12.2797 1.83292ZM16.3708 22.847C15.88 24.8155 13.8864 26.0134 11.9179 25.5226L11.1921 28.4335C14.7683 29.3251 18.3901 27.1489 19.2817 23.5728L16.3708 22.847ZM13.6952 18.3941C15.6637 18.8849 16.8616 20.8785 16.3708 22.847L19.2817 23.5728C20.1734 19.9967 17.9971 16.3748 14.421 15.4832L13.6952 18.3941ZM6.15895 5.85158L8.6688 6.47736L9.39457 3.56647L6.88472 2.94069L6.15895 5.85158ZM4.38836 23.6453L1.87851 23.0195L1.15274 25.9304L3.66259 26.5562L4.38836 23.6453ZM2.97107 24.8378L7.97728 4.75902L5.06639 4.03325L0.0601814 24.1121L2.97107 24.8378Z" fill="currentColor"/>
</svg>
