<svg width="104" height="104" viewBox="0 0 104 104" fill="none" xmlns="http://www.w3.org/2000/svg">
<circle cx="52" cy="52" r="50" stroke="#475569" stroke-width="4"/>
<path d="M54.4134 35.7467L52.9992 37.161V37.161L54.4134 35.7467ZM64.5199 45.8533L65.9342 44.4391V44.4391L64.5199 45.8533ZM48.2667 66.8C47.1621 66.8 46.2667 67.6954 46.2667 68.8C46.2667 69.9046 47.1621 70.8 48.2667 70.8V66.8ZM36.9333 59.4667C36.9333 60.5712 37.8288 61.4667 38.9333 61.4667C40.0379 61.4667 40.9333 60.5712 40.9333 59.4667H36.9333ZM37.5191 67.3858C36.7381 68.1668 36.7381 69.4332 37.5191 70.2142C38.3002 70.9953 39.5665 70.9953 40.3476 70.2142L37.5191 67.3858ZM42.6667 37.2H53.0935V33.2H42.6667V37.2ZM63.0667 47.1732V65.0667H67.0667V47.1732H63.0667ZM52.9992 37.161L63.1057 47.2675L65.9342 44.4391L55.8276 34.3325L52.9992 37.161ZM67.0667 47.1732C67.0667 46.1477 66.6593 45.1642 65.9342 44.4391L63.1057 47.2675C63.0807 47.2425 63.0667 47.2086 63.0667 47.1732H67.0667ZM53.0935 37.2C53.0581 37.2 53.0242 37.186 52.9992 37.161L55.8276 34.3325C55.1025 33.6074 54.119 33.2 53.0935 33.2V37.2ZM61.3333 70.8C64.4998 70.8 67.0667 68.2331 67.0667 65.0667H63.0667C63.0667 66.024 62.2906 66.8 61.3333 66.8V70.8ZM40.9333 38.9333C40.9333 37.9761 41.7094 37.2 42.6667 37.2V33.2C39.5003 33.2 36.9333 35.7669 36.9333 38.9333H40.9333ZM61.3333 66.8H48.2667V70.8H61.3333V66.8ZM40.9333 59.4667V38.9333H36.9333V59.4667H40.9333ZM55.6 55.7333C55.6 57.7216 53.9882 59.3333 52 59.3333V63.3333C56.1974 63.3333 59.6 59.9307 59.6 55.7333H55.6ZM48.4 55.7333C48.4 53.7451 50.0118 52.1333 52 52.1333V48.1333C47.8027 48.1333 44.4 51.536 44.4 55.7333H48.4ZM52 52.1333C53.9882 52.1333 55.6 53.7451 55.6 55.7333H59.6C59.6 51.536 56.1974 48.1333 52 48.1333V52.1333ZM46.626 58.2789L37.5191 67.3858L40.3476 70.2142L49.4544 61.1074L46.626 58.2789ZM52 59.3333C51.0053 59.3333 50.1081 58.9326 49.4544 58.2789L46.626 61.1074C47.9991 62.4805 49.9019 63.3333 52 63.3333V59.3333ZM49.4544 58.2789C48.8008 57.6253 48.4 56.728 48.4 55.7333H44.4C44.4 57.8315 45.2529 59.7342 46.626 61.1074L49.4544 58.2789Z" fill="#475569"/>
</svg>
