<svg width="20" height="21" viewBox="0 0 20 21" fill="none" xmlns="http://www.w3.org/2000/svg">
<path fill-rule="evenodd" clip-rule="evenodd" d="M2.24535 1.77936C1.55759 1.77936 1.00004 2.3369 1.00004 3.02467V5.37701C1.00004 6.06477 1.55759 6.62231 2.24535 6.62231H4.59769C5.28546 6.62231 5.843 6.06477 5.843 5.37701V3.02467C5.843 2.3369 5.28546 1.77936 4.59769 1.77936H2.24535ZM8.82383 1.77939C8.13606 1.77939 7.57852 2.33694 7.57852 3.0247V5.37704C7.57852 6.0648 8.13606 6.62235 8.82383 6.62235H11.1762C11.8639 6.62235 12.4215 6.0648 12.4215 5.37704V3.0247C12.4215 2.33694 11.8639 1.77939 11.1762 1.77939H8.82383ZM15.4024 1.77939C14.7146 1.77939 14.157 2.33693 14.157 3.0247V5.37704C14.157 6.06481 14.7146 6.62235 15.4024 6.62235H17.7547C18.4425 6.62235 19 6.06481 19 5.37704V3.0247C19 2.33694 18.4425 1.77939 17.7547 1.77939H15.4024ZM2.24531 8.35784C1.55754 8.35784 1 8.91538 1 9.60314V11.9555C1 12.6432 1.55754 13.2008 2.24531 13.2008H4.59765C5.28541 13.2008 5.84296 12.6432 5.84296 11.9555V9.60314C5.84296 8.91538 5.28541 8.35784 4.59765 8.35784H2.24531ZM8.82383 8.35784C8.13606 8.35784 7.57852 8.91538 7.57852 9.60314V11.9555C7.57852 12.6432 8.13606 13.2008 8.82383 13.2008H11.1762C11.8639 13.2008 12.4215 12.6432 12.4215 11.9555V9.60314C12.4215 8.91538 11.8639 8.35784 11.1762 8.35784H8.82383ZM15.4024 8.35784C14.7146 8.35784 14.157 8.91538 14.157 9.60314V11.9555C14.157 12.6432 14.7146 13.2008 15.4024 13.2008H17.7547C18.4425 13.2008 19 12.6432 19 11.9555V9.60314C19 8.91538 18.4425 8.35784 17.7547 8.35784H15.4024ZM2.24531 14.9363C1.55754 14.9363 1 15.4938 1 16.1816V18.5339C1 19.2217 1.55754 19.7792 2.24531 19.7792H4.59765C5.28541 19.7792 5.84296 19.2217 5.84296 18.5339V16.1816C5.84296 15.4938 5.28541 14.9363 4.59765 14.9363H2.24531ZM8.82383 14.9363C8.13606 14.9363 7.57852 15.4938 7.57852 16.1816V18.5339C7.57852 19.2217 8.13606 19.7792 8.82383 19.7792H11.1762C11.8639 19.7792 12.4215 19.2217 12.4215 18.5339V16.1816C12.4215 15.4938 11.8639 14.9363 11.1762 14.9363H8.82383ZM15.4024 14.9363C14.7146 14.9363 14.157 15.4938 14.157 16.1816V18.5339C14.157 19.2217 14.7146 19.7792 15.4024 19.7792H17.7547C18.4425 19.7792 19 19.2217 19 18.5339V16.1816C19 15.4938 18.4425 14.9363 17.7547 14.9363H15.4024Z" fill="#64748B"/>
</svg>
