<svg width="149" height="28" viewBox="0 0 149 28" fill="none" xmlns="http://www.w3.org/2000/svg">
<path d="M4.36364 27.5369V20.2957H26.1818C26.1798 21.2488 25.9901 22.1921 25.6236 23.0719C25.257 23.9516 24.7207 24.7505 24.0454 25.423C23.37 26.0955 22.5688 26.6284 21.6876 26.9912C20.8063 27.354 19.8621 27.5397 18.9091 27.5376L4.36364 27.5369ZM0 17.3995V10.1576H30.5455C30.9304 10.1568 31.2998 10.3089 31.5726 10.5804C31.8454 10.852 31.9991 11.2208 32 11.6057V15.9514C31.9991 16.3363 31.8454 16.7051 31.5726 16.9766C31.2998 17.2482 30.9304 17.4003 30.5455 17.3995H0ZM4.36364 7.26286V0.0209526H18.9091C19.8622 0.0188595 20.8063 0.204524 21.6876 0.567345C22.5689 0.930165 23.3701 1.46303 24.0455 2.13552C24.7208 2.80801 25.2571 3.60694 25.6236 4.4867C25.9902 5.36645 26.1799 6.3098 26.1818 7.26286H4.36364Z" fill="#22C55E"/>
<path d="M40.0005 9.55109C39.9949 9.30315 40.0413 9.05676 40.1367 8.82759C40.2322 8.59842 40.3746 8.39149 40.555 8.21994C40.7284 8.04626 40.9352 7.90908 41.1632 7.81659C41.3912 7.7241 41.6356 7.6782 41.8818 7.68164H54.0809C54.3273 7.6781 54.5719 7.72394 54.8001 7.81643C55.0283 7.90892 55.2353 8.04616 55.4088 8.21994C55.5894 8.39143 55.732 8.59833 55.8277 8.82749C55.9233 9.05665 55.97 9.30307 55.9646 9.55109V18.3618C55.97 18.6098 55.9234 18.8563 55.8277 19.0854C55.732 19.3146 55.5894 19.5215 55.4088 19.693C55.2353 19.8667 55.0283 20.004 54.8001 20.0965C54.5719 20.189 54.3273 20.2348 54.0809 20.2313H45.0389V17.3374H52.4561V10.5755H43.5383V21.3247C43.5383 24.2035 40.0005 24.6365 40.0005 24.6365V9.55109ZM75.1612 20.2799L75.1143 7.70641C75.1143 7.70641 78.6839 7.74063 78.6839 10.6321V20.2799H75.1612ZM134.929 20.2313C134.683 20.2348 134.438 20.189 134.21 20.0965C133.982 20.004 133.774 19.8668 133.601 19.693C133.421 19.5214 133.278 19.3145 133.183 19.0853C133.087 18.8561 133.041 18.6098 133.046 18.3618V9.55109C133.041 9.30315 133.087 9.05676 133.183 8.82759C133.278 8.59842 133.421 8.39149 133.601 8.21994C133.774 8.04612 133.982 7.90887 134.21 7.81637C134.438 7.72388 134.683 7.67806 134.929 7.68164H146.688C146.935 7.67796 147.179 7.72374 147.408 7.81624C147.636 7.90874 147.843 8.04605 148.016 8.21994C148.197 8.39128 148.34 8.59817 148.435 8.82739C148.531 9.05661 148.577 9.3031 148.571 9.55109V13.6749C148.577 13.923 148.531 14.1695 148.435 14.3988C148.34 14.6281 148.197 14.835 148.016 15.0064C147.843 15.1802 147.636 15.3175 147.408 15.41C147.179 15.5025 146.935 15.5483 146.688 15.5447H138.717V12.675H144.858V10.5755H136.761V17.3115H148.444V20.2316L134.929 20.2313ZM116.128 20.2313V17.3374H127.321V15.2639H117.702C117.456 15.2679 117.213 15.2235 116.985 15.1332C116.757 15.0429 116.549 14.9086 116.374 14.7379C116.191 14.5657 116.047 14.3568 115.951 14.1252C115.856 13.8937 115.811 13.6446 115.819 13.3944V9.55109C115.815 9.30436 115.86 9.05924 115.953 8.83039C116.046 8.60154 116.185 8.39368 116.36 8.21924C116.536 8.04481 116.745 7.90739 116.976 7.81522C117.207 7.72304 117.453 7.67801 117.702 7.68282H130.184V10.5755H119.532V12.3682H129.151C129.397 12.3647 129.642 12.4105 129.87 12.503C130.098 12.5955 130.305 12.7328 130.479 12.9065C130.659 13.0782 130.802 13.2854 130.898 13.5148C130.993 13.7443 131.039 13.991 131.033 14.2392V18.3618C131.039 18.6098 130.993 18.8562 130.897 19.0854C130.802 19.3146 130.659 19.5215 130.479 19.693C130.305 19.8668 130.098 20.004 129.87 20.0965C129.642 20.189 129.397 20.2348 129.151 20.2313H116.128ZM58.3345 20.2313V17.1852H69.7159V15.1816H59.9034C59.6575 15.1852 59.4134 15.1396 59.1856 15.0473C58.9579 14.9551 58.7513 14.8182 58.5781 14.6447C58.3983 14.4737 58.2562 14.2673 58.161 14.0388C58.0658 13.8103 58.0195 13.5647 58.025 13.3174V9.57291C58.0194 9.32528 58.0657 9.07919 58.1609 8.85024C58.2561 8.6213 58.3982 8.4145 58.5781 8.24294C58.7514 8.06974 58.9581 7.93296 59.1858 7.84073C59.4135 7.74851 59.6575 7.70273 59.9034 7.70612H72.5162V10.6728H61.2813V12.3066H71.3314C71.5774 12.3029 71.8217 12.3487 72.0495 12.4412C72.2772 12.5337 72.4838 12.671 72.6567 12.8449C72.8371 13.0156 72.9796 13.2219 73.0751 13.4504C73.1706 13.679 73.2169 13.9248 73.2113 14.1722V18.3659C73.2167 18.6133 73.1702 18.8591 73.0747 19.0876C72.9792 19.3161 72.8369 19.5224 72.6567 19.6933C72.4835 19.8667 72.2769 20.0036 72.0492 20.0958C71.8214 20.1881 71.5773 20.2337 71.3314 20.2301L58.3345 20.2313ZM100.608 20.2313C100.362 20.2354 100.119 20.1912 99.8905 20.1011C99.6626 20.011 99.4549 19.8769 99.2795 19.7065C99.0969 19.5341 98.9531 19.3252 98.8575 19.0937C98.7619 18.8621 98.7168 18.6131 98.725 18.363V14.238C98.7166 13.9876 98.7617 13.7384 98.8573 13.5065C98.9529 13.2747 99.0968 13.0656 99.2795 12.893C99.455 12.7227 99.6627 12.5885 99.8906 12.4983C100.119 12.408 100.362 12.3634 100.608 12.3671H108.243V15.2624H102.439V17.3374H110.203V10.5755H99.8332V7.68164H112.032C112.279 7.67806 112.523 7.72389 112.751 7.81638C112.98 7.90888 113.187 8.04613 113.36 8.21994C113.541 8.39138 113.683 8.59829 113.779 8.82749C113.874 9.05668 113.921 9.30312 113.915 9.55109V18.3618C113.92 18.6098 113.874 18.8562 113.779 19.0853C113.683 19.3145 113.541 19.5214 113.36 19.693C113.187 19.8666 112.98 20.0036 112.751 20.0958C112.523 20.1881 112.279 20.2336 112.032 20.2298L100.608 20.2313ZM82.697 20.2313C82.4507 20.2347 82.2062 20.189 81.9781 20.0968C81.75 20.0045 81.5428 19.8677 81.369 19.6944C81.1889 19.5227 81.0466 19.3158 80.9511 19.0866C80.8557 18.8575 80.8091 18.6112 80.8145 18.3633V2.92218C80.8145 2.92218 84.352 3.35488 84.352 6.23516V17.3374H93.2701V10.5755H85.8526V7.68164H94.8961C95.1423 7.67805 95.3868 7.72388 95.6147 7.81638C95.8427 7.90888 96.0496 8.04614 96.2229 8.21994C96.4033 8.39141 96.5458 8.59834 96.6412 8.82753C96.7366 9.05672 96.7829 9.30315 96.7771 9.55109V18.3618C96.7828 18.6097 96.7364 18.8561 96.641 19.0853C96.5456 19.3145 96.4032 19.5214 96.2229 19.693C96.0495 19.8665 95.8426 20.0036 95.6146 20.0958C95.3866 20.1881 95.1422 20.2336 94.8961 20.2298L82.697 20.2313Z" fill="#0F172A"/>
</svg>
