<svg width="30" height="23" viewBox="0 0 30 23" fill="none" xmlns="http://www.w3.org/2000/svg">
    <path d="M19.3138 8.59907L18.7212 7.41395C18.2724 7.63839 17.9888 8.09719 17.9888 8.59907H19.3138ZM25.8901 5.31094L26.4826 6.49606L25.8901 5.31094ZM25.89 17.665L26.4826 16.4798L25.89 17.665ZM14.5258 4.14629C15.2575 4.14629 15.8508 3.55307 15.8508 2.82129C15.8508 2.08951 15.2575 1.49629 14.5258 1.49629V4.14629ZM0.655469 15.6459C0.655469 16.3777 1.24869 16.9709 1.98047 16.9709C2.71225 16.9709 3.30547 16.3777 3.30547 15.6459H0.655469ZM7.33893 18.8296C6.60715 18.8296 6.01393 19.4228 6.01393 20.1546C6.01393 20.8864 6.60715 21.4796 7.33893 21.4796V18.8296ZM21.4194 2.98819C21.9368 2.47074 21.9368 1.6318 21.4194 1.11435C20.9019 0.596908 20.063 0.596908 19.5455 1.11435L21.4194 2.98819ZM0.672214 19.9877C0.15477 20.5051 0.15477 21.3441 0.672214 21.8615C1.18966 22.379 2.0286 22.379 2.54605 21.8615L0.672214 19.9877ZM17.9888 17.2657C17.9888 18.1294 17.2886 18.8296 16.4249 18.8296V21.4796C18.7522 21.4796 20.6388 19.593 20.6388 17.2657H17.9888ZM4.86936 1.49629C2.54209 1.49629 0.655469 3.38291 0.655469 5.71018H3.30547C3.30547 4.84647 4.00565 4.14629 4.86936 4.14629V1.49629ZM19.9064 9.78418L26.4826 6.49606L25.2975 4.12583L18.7212 7.41395L19.9064 9.78418ZM26.6555 6.60289V16.373H29.3055V6.60289H26.6555ZM26.4826 16.4798L19.9064 13.1917L18.7212 15.562L25.2975 18.8501L26.4826 16.4798ZM26.6555 16.373C26.6555 16.4041 26.6485 16.4207 26.6421 16.4317C26.634 16.4457 26.6198 16.4617 26.5988 16.4746C26.5779 16.4876 26.5572 16.4932 26.5411 16.4941C26.5284 16.4949 26.5104 16.4938 26.4826 16.4798L25.2975 18.8501C27.1389 19.7708 29.3055 18.4318 29.3055 16.373H26.6555ZM26.4826 6.49606C26.5104 6.48215 26.5284 6.48098 26.5411 6.48176C26.5572 6.48275 26.5779 6.48833 26.5988 6.50129C26.6198 6.51425 26.634 6.5302 26.6421 6.54422C26.6485 6.5552 26.6555 6.57179 26.6555 6.60289H29.3055C29.3055 4.54414 27.1389 3.20512 25.2975 4.12583L26.4826 6.49606ZM4.86936 4.14629H14.5258V1.49629H4.86936V4.14629ZM3.30547 15.6459V5.71018H0.655469V15.6459H3.30547ZM17.9888 8.59907V14.3768H20.6388V8.59907H17.9888ZM17.9888 14.3768V17.2657H20.6388V14.3768H17.9888ZM16.4249 18.8296H7.33893V21.4796H16.4249V18.8296ZM19.5455 1.11435L0.672214 19.9877L2.54605 21.8615L21.4194 2.98819L19.5455 1.11435Z" fill="currentColor"/>
</svg>
