<svg viewBox="0 0 22 30" fill="none" xmlns="http://www.w3.org/2000/svg">
<path d="M2.10278 22.6893L0.649956 22.3161C0.488224 22.9457 0.750393 23.6078 1.29929 23.956L2.10278 22.6893ZM5.87067 8.02209L4.70354 7.07985C4.56869 7.24689 4.47126 7.44093 4.41785 7.64887L5.87067 8.02209ZM11.0028 28.335L10.1993 29.6017C10.6899 29.9129 11.3161 29.9128 11.8066 29.6015L11.0028 28.335ZM16.1292 8.02209L17.582 7.64887C17.5287 7.4412 17.4314 7.24738 17.2969 7.08048L16.1292 8.02209ZM19.8971 22.6893L20.701 23.9557C21.2496 23.6075 21.5116 22.9455 21.3499 22.3161L19.8971 22.6893ZM11.0028 1.66504L12.1704 0.723435C11.8858 0.370432 11.4567 0.165162 11.0032 0.165039C10.5497 0.164916 10.1205 0.369955 9.83565 0.722803L11.0028 1.66504ZM3.55561 23.0625L7.3235 8.39531L4.41785 7.64887L0.649956 22.3161L3.55561 23.0625ZM4.41637 8.38952L9.54848 28.7025L12.4571 27.9676L7.32497 7.65465L4.41637 8.38952ZM11.8063 27.0684L2.90628 21.4227L1.29929 23.956L10.1993 29.6017L11.8063 27.0684ZM14.6764 8.39531L18.4443 23.0625L21.3499 22.3161L17.582 7.64887L14.6764 8.39531ZM19.0932 21.4229L10.1989 27.0686L11.8066 29.6015L20.701 23.9557L19.0932 21.4229ZM12.4572 28.7021L17.5836 8.38914L14.6748 7.65504L9.54839 27.968L12.4572 28.7021ZM9.83514 2.60664L14.9616 8.96369L17.2969 7.08048L12.1704 0.723435L9.83514 2.60664ZM7.0378 8.96432L12.1699 2.60728L9.83565 0.722803L4.70354 7.07985L7.0378 8.96432Z" fill="currentColor"/>
</svg>
