<svg width="24" height="24" viewBox="0 0 24 24" fill="none" xmlns="http://www.w3.org/2000/svg">
<path d="M15.1497 11C15.1497 12.6569 13.8066 14 12.1497 14M19.1497 11C19.1497 14.866 16.0157 18 12.1497 18M12.1497 18V22M12.1497 18C10.8019 18 9.54302 17.6191 8.47492 16.959M12.1497 22H8.14971M12.1497 22H16.1497M9.14971 8.97337V5C9.14971 3.34315 10.4929 2 12.1497 2C13.2142 2 14.1492 2.5544 14.6817 3.39021M5.44132 13.0058C5.25161 12.3704 5.14971 11.6971 5.14971 11M19.9997 2L3.99997 18" stroke="currentColor" stroke-width="2" stroke-linecap="round" stroke-linejoin="round"/>
</svg>
