<svg viewBox="0 0 32 32" fill="none" xmlns="http://www.w3.org/2000/svg">
<path d="M7.66455 4.48795L8.8217 5.1537L7.66455 4.48795ZM10.2328 3V4.335V3ZM1.8973 17.4879L3.05446 16.8222L1.8973 17.4879ZM1.89731 14.512L0.740154 13.8463L1.89731 14.512ZM10.2328 29V30.335V29ZM7.66454 27.5121L6.50739 28.1778L7.66454 27.5121ZM24.3355 27.5121L25.4926 28.1778L24.3355 27.5121ZM21.7672 29V27.665V29ZM30.1027 14.5121L31.2598 13.8463V13.8463L30.1027 14.5121ZM30.1027 17.4879L28.9455 16.8222L30.1027 17.4879ZM24.3355 4.48795L23.1783 5.1537V5.1537L24.3355 4.48795ZM21.7672 3V1.665V3ZM19.2729 12.4404C19.2729 14.1728 17.8747 15.5692 16.1596 15.5692V18.2392C19.358 18.2392 21.9429 15.6386 21.9429 12.4404H19.2729ZM16.1596 15.5692C14.4446 15.5692 13.0464 14.1728 13.0464 12.4404H10.3764C10.3764 15.6386 12.9612 18.2392 16.1596 18.2392V15.5692ZM13.0464 12.4404C13.0464 10.708 14.4446 9.31154 16.1596 9.31154V6.64154C12.9612 6.64154 10.3764 9.24217 10.3764 12.4404H13.0464ZM16.1596 9.31154C17.8747 9.31154 19.2729 10.708 19.2729 12.4404H21.9429C21.9429 9.24217 19.358 6.64154 16.1596 6.64154V9.31154ZM16.1596 20.0331C12.2154 20.0331 8.50894 21.0712 5.30113 22.8907L6.61843 25.2132C9.43546 23.6153 12.6895 22.7031 16.1596 22.7031V20.0331ZM27.0181 22.8907C23.8103 21.0712 20.1039 20.0331 16.1596 20.0331V22.7031C19.6298 22.7031 22.8838 23.6153 25.7008 25.2132L27.0181 22.8907ZM23.1783 5.1537L28.9455 15.1778L31.2598 13.8463L25.4926 3.8222L23.1783 5.1537ZM28.9455 16.8222L23.1783 26.8463L25.4926 28.1778L31.2598 18.1537L28.9455 16.8222ZM21.7672 27.665H10.2328V30.335H21.7672V27.665ZM8.8217 26.8463L3.05446 16.8222L0.740153 18.1537L6.50739 28.1778L8.8217 26.8463ZM3.05446 15.1778L8.8217 5.1537L6.50739 3.82219L0.740154 13.8463L3.05446 15.1778ZM10.2328 4.335L21.7672 4.335V1.665L10.2328 1.665V4.335ZM8.8217 5.1537C9.114 4.64564 9.65251 4.335 10.2328 4.335V1.665C8.69406 1.665 7.27457 2.48876 6.50739 3.82219L8.8217 5.1537ZM3.05446 16.8222C2.76185 16.3136 2.76185 15.6864 3.05446 15.1778L0.740154 13.8463C-0.0267166 15.1792 -0.026719 16.8208 0.740153 18.1537L3.05446 16.8222ZM10.2328 27.665C9.65251 27.665 9.114 27.3544 8.8217 26.8463L6.50739 28.1778C7.27456 29.5112 8.69405 30.335 10.2328 30.335V27.665ZM23.1783 26.8463C22.886 27.3544 22.3475 27.665 21.7672 27.665V30.335C23.3059 30.335 24.7254 29.5112 25.4926 28.1778L23.1783 26.8463ZM28.9455 15.1778C29.2382 15.6864 29.2382 16.3136 28.9455 16.8222L31.2598 18.1537C32.0267 16.8208 32.0267 15.1792 31.2598 13.8463L28.9455 15.1778ZM25.4926 3.8222C24.7254 2.48877 23.306 1.665 21.7672 1.665V4.335C22.3475 4.335 22.886 4.64564 23.1783 5.1537L25.4926 3.8222Z" fill="currentColor"/>
</svg>