<svg width="105" height="104" viewBox="0 0 105 104" fill="none" xmlns="http://www.w3.org/2000/svg">
<circle cx="52.7642" cy="52" r="50" stroke="#475569" stroke-width="4"/>
<path d="M65.257 38.8313C65.257 45.8519 59.6638 51.5433 52.7641 51.5433C45.8645 51.5433 40.2713 45.8519 40.2713 38.8313C40.2713 31.8107 45.8645 26.1194 52.7641 26.1194C59.6638 26.1194 65.257 31.8107 65.257 38.8313Z" stroke="#475569" stroke-width="4" stroke-linejoin="round"/>
<path d="M40.1808 77.8805H65.171C68.9885 77.8805 70.5238 76.9212 72.3837 73.6432L75.5337 68.0916C68.6347 65.1662 61.0649 63.5509 53.1242 63.5509C44.9064 63.5509 37.0856 65.281 29.9946 68.4028L32.9681 73.6432C34.7732 76.7525 36.5519 77.8805 40.1808 77.8805Z" stroke="#475569" stroke-width="4" stroke-linejoin="round"/>
</svg>
