<svg width="45" height="44" viewBox="0 0 45 44" fill="none" xmlns="http://www.w3.org/2000/svg">
<circle cx="22.5791" cy="22" r="21" stroke="#475569" stroke-width="2"/>
<path d="M14.8291 32.9335V27.537H31.7041C31.7026 28.2472 31.5558 28.9503 31.2723 29.6059C30.9888 30.2615 30.574 30.8569 30.0517 31.3581C29.5294 31.8593 28.9097 32.2564 28.2281 32.5268C27.5465 32.7972 26.8162 32.9356 26.0791 32.9341L14.8291 32.9335ZM11.4541 24.7832V19.3861H35.0791C35.3768 19.3855 35.6626 19.4988 35.8735 19.7012C36.0845 19.9036 36.2034 20.1784 36.2041 20.4653V23.704C36.2034 23.9908 36.0845 24.2657 35.8735 24.468C35.6626 24.6704 35.3768 24.7838 35.0791 24.7832H11.4541ZM14.8291 16.463V11.0659H26.0791C26.8162 11.0644 27.5465 11.2027 28.2281 11.4731C28.9097 11.7435 29.5294 12.1407 30.0518 12.6418C30.5741 13.143 30.9889 13.7384 31.2724 14.3941C31.5559 15.0497 31.7026 15.7528 31.7041 16.463H14.8291Z" stroke="#475569" stroke-width="2" stroke-linejoin="round"/>
</svg>
