<svg width="105" height="104" viewBox="0 0 105 104" fill="none" xmlns="http://www.w3.org/2000/svg">
<circle cx="52.7642" cy="52" r="50" stroke="#475569" stroke-width="4"/>
<path d="M55.8681 31.0974L54.4539 32.5116V32.5116L55.8681 31.0974ZM68.8657 44.0949L70.2799 42.6807L68.8657 44.0949ZM47.9631 71.6056C46.8585 71.6056 45.9631 72.5011 45.9631 73.6056C45.9631 74.7102 46.8585 75.6056 47.9631 75.6056V71.6056ZM33.96 61.6025C33.96 62.7071 34.8554 63.6025 35.96 63.6025C37.0645 63.6025 37.96 62.7071 37.96 61.6025H33.96ZM34.5457 72.1914C33.7647 72.9725 33.7647 74.2388 34.5457 75.0198C35.3268 75.8009 36.5931 75.8009 37.3742 75.0198L34.5457 72.1914ZM40.7612 32.3943H54.1706V28.3943H40.7612V32.3943ZM67.5688 45.7924V68.8044H71.5688V45.7924H67.5688ZM54.4539 32.5116L67.4514 45.5092L70.2799 42.6807L57.2823 29.6832L54.4539 32.5116ZM71.5688 45.7924C71.5688 44.6253 71.1052 43.506 70.2799 42.6807L67.4514 45.5092C67.5266 45.5843 67.5688 45.6862 67.5688 45.7924H71.5688ZM54.1706 32.3943C54.2769 32.3943 54.3788 32.4365 54.4539 32.5116L57.2823 29.6832C56.4571 28.8579 55.3377 28.3943 54.1706 28.3943V32.3943ZM64.7675 75.6056C68.5238 75.6056 71.5688 72.5606 71.5688 68.8044H67.5688C67.5688 70.3515 66.3146 71.6056 64.7675 71.6056V75.6056ZM37.96 35.1955C37.96 33.6485 39.2141 32.3943 40.7612 32.3943V28.3943C37.005 28.3943 33.96 31.4393 33.96 35.1955H37.96ZM64.7675 71.6056H47.9631V75.6056H64.7675V71.6056ZM37.96 61.6025V35.1955H33.96V61.6025H37.96ZM57.9663 56.8012C57.9663 59.6741 55.6373 62.0031 52.7644 62.0031V66.0031C57.8464 66.0031 61.9663 61.8833 61.9663 56.8012H57.9663ZM47.5625 56.8012C47.5625 53.9283 49.8914 51.5993 52.7644 51.5993V47.5993C47.6823 47.5993 43.5625 51.7192 43.5625 56.8012H47.5625ZM52.7644 51.5993C55.6373 51.5993 57.9663 53.9283 57.9663 56.8012H61.9663C61.9663 51.7192 57.8464 47.5993 52.7644 47.5993V51.5993ZM46.2577 60.4795L34.5457 72.1914L37.3742 75.0198L49.0861 63.3079L46.2577 60.4795ZM52.7644 62.0031C51.3274 62.0031 50.0296 61.4231 49.0861 60.4795L46.2577 63.3079C47.9207 64.971 50.2239 66.0031 52.7644 66.0031V62.0031ZM49.0861 60.4795C48.1425 59.536 47.5625 58.2382 47.5625 56.8012H43.5625C43.5625 59.3417 44.5946 61.6449 46.2577 63.3079L49.0861 60.4795Z" fill="#475569"/>
</svg>
