<svg width="105" height="104" viewBox="0 0 105 104" fill="none" xmlns="http://www.w3.org/2000/svg">
<circle cx="52.3955" cy="52" r="50" stroke="#475569" stroke-width="4"/>
<path d="M33.7953 78.2404V65.2887H74.2953C74.2916 66.9934 73.9395 68.6807 73.2591 70.2542C72.5786 71.8277 71.5832 73.2567 70.3296 74.4595C69.076 75.6623 67.5887 76.6154 65.9528 77.2644C64.317 77.9134 62.5644 78.2455 60.7953 78.2418L33.7953 78.2404ZM25.6953 58.6797V45.7266H82.3953C83.1098 45.7251 83.7956 45.9972 84.302 46.4829C84.8083 46.9687 85.0937 47.6283 85.0953 48.3168V56.0895C85.0937 56.778 84.8083 57.4376 84.302 57.9234C83.7956 58.4091 83.1098 58.6811 82.3953 58.6797H25.6953ZM33.7953 38.7113V25.7583H60.7953C62.5644 25.7545 64.317 26.0866 65.9529 26.7356C67.5888 27.3845 69.0761 28.3376 70.3297 29.5404C71.5833 30.7433 72.5788 32.1723 73.2592 33.7458C73.9396 35.3194 74.2917 37.0067 74.2953 38.7113H33.7953Z" stroke="#475569" stroke-width="4" stroke-linejoin="round"/>
</svg>
