<svg width="44" height="44" viewBox="0 0 44 44" fill="none" xmlns="http://www.w3.org/2000/svg">
<circle cx="22" cy="22" r="21" stroke="#475569" stroke-width="2"/>
<path d="M23.0057 15.2278L22.2986 15.9349V15.9349L23.0057 15.2278ZM27.2167 19.4389L27.9239 18.7318L27.2167 19.4389ZM20.4446 28C19.8923 28 19.4446 28.4477 19.4446 29C19.4446 29.5523 19.8923 30 20.4446 30V28ZM15.5557 25.1111C15.5557 25.6634 16.0034 26.1111 16.5557 26.1111C17.1079 26.1111 17.5557 25.6634 17.5557 25.1111H15.5557ZM15.8486 28.2929C15.458 28.6834 15.458 29.3166 15.8486 29.7071C16.2391 30.0976 16.8722 30.0976 17.2628 29.7071L15.8486 28.2929ZM18.1112 16H22.4557V14H18.1112V16ZM26.4446 19.9888V27.4444H28.4446V19.9888H26.4446ZM22.2986 15.9349L26.5096 20.146L27.9239 18.7318L23.7128 14.5207L22.2986 15.9349ZM28.4446 19.9888C28.4446 19.5173 28.2573 19.0652 27.9239 18.7318L26.5096 20.146C26.468 20.1043 26.4446 20.0478 26.4446 19.9888H28.4446ZM22.4557 16C22.3968 16 22.3403 15.9766 22.2986 15.9349L23.7128 14.5207C23.3794 14.1873 22.9272 14 22.4557 14V16ZM25.889 30C27.3004 30 28.4446 28.8558 28.4446 27.4444H26.4446C26.4446 27.7513 26.1958 28 25.889 28V30ZM17.5557 16.5556C17.5557 16.2487 17.8044 16 18.1112 16V14C16.6998 14 15.5557 15.1442 15.5557 16.5556H17.5557ZM25.889 28H20.4446V30H25.889V28ZM17.5557 25.1111V16.5556H15.5557V25.1111H17.5557ZM23.3334 23.5556C23.3334 24.2919 22.7365 24.8889 22.0001 24.8889V26.8889C23.8411 26.8889 25.3334 25.3965 25.3334 23.5556H23.3334ZM20.6668 23.5556C20.6668 22.8192 21.2637 22.2222 22.0001 22.2222V20.2222C20.1592 20.2222 18.6668 21.7146 18.6668 23.5556H20.6668ZM22.0001 22.2222C22.7365 22.2222 23.3334 22.8192 23.3334 23.5556H25.3334C25.3334 21.7146 23.8411 20.2222 22.0001 20.2222V22.2222ZM19.6431 24.4984L15.8486 28.2929L17.2628 29.7071L21.0573 25.9126L19.6431 24.4984ZM22.0001 24.8889C21.6316 24.8889 21.2997 24.7407 21.0573 24.4984L19.6431 25.9126C20.2452 26.5147 21.0799 26.8889 22.0001 26.8889V24.8889ZM21.0573 24.4984C20.8149 24.256 20.6668 23.924 20.6668 23.5556H18.6668C18.6668 24.4758 19.041 25.3105 19.6431 25.9126L21.0573 24.4984Z" fill="#475569"/>
</svg>
