<svg width="45" height="44" viewBox="0 0 45 44" fill="none" xmlns="http://www.w3.org/2000/svg">
<circle cx="22.7642" cy="22" r="21" stroke="#475569" stroke-width="2"/>
<path d="M24.1683 12.545L23.4612 13.2521L23.4612 13.2521L24.1683 12.545ZM30.0475 18.4243L30.7546 17.7172L30.0475 18.4243ZM20.5925 30.773C20.0403 30.773 19.5925 31.2207 19.5925 31.773C19.5925 32.3253 20.0403 32.773 20.5925 32.773V30.773ZM14.1631 26.3436C14.1631 26.8959 14.6108 27.3436 15.1631 27.3436C15.7154 27.3436 16.1631 26.8959 16.1631 26.3436H14.1631ZM14.456 31.0659C14.0655 31.4564 14.0655 32.0896 14.456 32.4801C14.8465 32.8707 15.4797 32.8707 15.8702 32.4801L14.456 31.0659ZM17.3349 13.227H23.4004V11.227H17.3349V13.227ZM29.3656 19.1921V29.6012H31.3656V19.1921H29.3656ZM23.4612 13.2521L29.3404 19.1314L30.7546 17.7172L24.8754 11.8379L23.4612 13.2521ZM31.3656 19.1921C31.3656 18.6389 31.1458 18.1084 30.7546 17.7172L29.3404 19.1314C29.3565 19.1475 29.3656 19.1693 29.3656 19.1921H31.3656ZM23.4004 13.227C23.4232 13.227 23.4451 13.236 23.4612 13.2521L24.8754 11.8379C24.4842 11.4468 23.9536 11.227 23.4004 11.227V13.227ZM28.1938 32.773C29.9455 32.773 31.3656 31.353 31.3656 29.6012H29.3656C29.3656 30.2484 28.8409 30.773 28.1938 30.773V32.773ZM16.1631 14.3988C16.1631 13.7516 16.6877 13.227 17.3349 13.227V11.227C15.5831 11.227 14.1631 12.647 14.1631 14.3988H16.1631ZM28.1938 30.773H20.5925V32.773H28.1938V30.773ZM16.1631 26.3436V14.3988H14.1631V26.3436H16.1631ZM25.022 24.1718C25.022 25.4187 24.0112 26.4295 22.7643 26.4295V28.4295C25.1158 28.4295 27.022 26.5232 27.022 24.1718H25.022ZM20.5066 24.1718C20.5066 22.9249 21.5174 21.9141 22.7643 21.9141V19.9141C20.4129 19.9141 18.5066 21.8203 18.5066 24.1718H20.5066ZM22.7643 21.9141C24.0112 21.9141 25.022 22.9249 25.022 24.1718H27.022C27.022 21.8203 25.1158 19.9141 22.7643 19.9141V21.9141ZM19.7537 25.7682L14.456 31.0659L15.8702 32.4801L21.1679 27.1824L19.7537 25.7682ZM22.7643 26.4295C22.1406 26.4295 21.5776 26.1779 21.1679 25.7682L19.7537 27.1824C20.5231 27.9518 21.5889 28.4295 22.7643 28.4295V26.4295ZM21.1679 25.7682C20.7583 25.3586 20.5066 24.7955 20.5066 24.1718H18.5066C18.5066 25.3472 18.9843 26.413 19.7537 27.1824L21.1679 25.7682Z" fill="#475569"/>
</svg>
