<svg width="45" height="44" viewBox="0 0 45 44" fill="none" xmlns="http://www.w3.org/2000/svg">
<circle cx="22.7642" cy="22" r="21" stroke="#475569" stroke-width="2"/>
<path d="M28.7046 15.738C28.7046 19.0765 26.0449 21.7828 22.764 21.7828C19.483 21.7828 16.8233 19.0765 16.8233 15.738C16.8233 12.3995 19.483 9.69316 22.764 9.69316C26.0449 9.69316 28.7046 12.3995 28.7046 15.738Z" stroke="#475569" stroke-width="2" stroke-linejoin="round"/>
<path d="M16.7803 34.3068H28.6637C30.479 34.3068 31.2091 33.8506 32.0936 32.2919L33.5915 29.6519C30.3108 28.2609 26.7112 27.4927 22.9352 27.4927C19.0274 27.4927 15.3085 28.3154 11.9365 29.7999L13.3505 32.2919C14.2088 33.7704 15.0547 34.3068 16.7803 34.3068Z" stroke="#475569" stroke-width="2" stroke-linejoin="round"/>
</svg>
