<svg width="104" height="104" viewBox="0 0 104 104" fill="none" xmlns="http://www.w3.org/2000/svg">
<circle cx="52" cy="52" r="50" stroke="#475569" stroke-width="4"/>
<path d="M25.5095 32.7805L38.4612 32.7805L38.4612 73.2805C36.7565 73.2769 35.0693 72.9247 33.4958 72.2443C31.9222 71.5638 30.4933 70.5684 29.2904 69.3148C28.0876 68.0612 27.1345 66.574 26.4855 64.9381C25.8366 63.3022 25.5044 61.5496 25.5081 59.7805L25.5095 32.7805ZM45.0703 24.6805L58.0233 24.6805L58.0233 81.3805C58.0248 82.095 57.7527 82.7809 57.267 83.2872C56.7813 83.7935 56.1216 84.0789 55.4332 84.0805L47.6604 84.0805C46.972 84.0789 46.3123 83.7935 45.8266 83.2872C45.3408 82.7809 45.0688 82.095 45.0703 81.3805L45.0703 24.6805ZM65.0386 32.7805L77.9917 32.7805L77.9917 59.7805C77.9954 61.5497 77.6633 63.3022 77.0144 64.9382C76.3654 66.5741 75.4123 68.0613 74.2095 69.3149C73.0067 70.5685 71.5777 71.564 70.0041 72.2444C68.4306 72.9248 66.7433 73.2769 65.0386 73.2805L65.0386 32.7805Z" stroke="#475569" stroke-width="4" stroke-linejoin="round"/>
</svg>
