<svg width="44" height="44" viewBox="0 0 44 44" fill="none" xmlns="http://www.w3.org/2000/svg">
<circle cx="22" cy="22" r="21" stroke="#475569" stroke-width="2"/>
<path d="M10.6466 12.6541L16.2505 12.6541L16.2505 30.1776C15.5129 30.176 14.7829 30.0237 14.1021 29.7292C13.4212 29.4348 12.803 29.0041 12.2825 28.4617C11.7621 27.9193 11.3497 27.2758 11.0689 26.568C10.7881 25.8602 10.6444 25.1019 10.646 24.3364L10.6466 12.6541ZM19.1101 9.14944L24.7146 9.14944L24.7146 33.6823C24.7152 33.9914 24.5975 34.2882 24.3874 34.5073C24.1772 34.7263 23.8918 34.8498 23.5939 34.8505L20.2308 34.8505C19.9329 34.8498 19.6475 34.7263 19.4373 34.5073C19.2272 34.2882 19.1095 33.9914 19.1101 33.6823L19.1101 9.14944ZM27.75 12.6541L33.3545 12.6541L33.3545 24.3364C33.3561 25.1019 33.2124 25.8602 32.9316 26.568C32.6508 27.2759 32.2385 27.9194 31.718 28.4618C31.1976 29.0042 30.5793 29.4349 29.8984 29.7293C29.2176 30.0237 28.4875 30.176 27.75 30.1776L27.75 12.6541Z" stroke="#475569" stroke-width="2" stroke-linejoin="round"/>
</svg>
