<svg width="53" height="54" viewBox="0 0 53 54" fill="none" xmlns="http://www.w3.org/2000/svg">
<circle cx="26.4199" cy="27" r="25.125" stroke="#475569" stroke-width="2.25"/>
<path d="M33.7061 20.3195C33.7061 24.4142 30.4439 27.7336 26.4198 27.7336C22.3956 27.7336 19.1334 24.4142 19.1334 20.3195C19.1334 16.2248 22.3956 12.9054 26.4198 12.9054C30.4439 12.9054 33.7061 16.2248 33.7061 20.3195Z" stroke="#475569" stroke-width="2.25" stroke-linejoin="round"/>
<path d="M19.0807 43.0946H33.6559C35.8825 43.0946 36.7779 42.5351 37.8627 40.6232L39.6999 37.3853C35.6761 35.6791 31.2611 34.7369 26.6298 34.7369C21.8368 34.7369 17.2754 35.746 13.1396 37.5668L14.8739 40.6232C15.9267 42.4367 16.9641 43.0946 19.0807 43.0946Z" stroke="#475569" stroke-width="2.25" stroke-linejoin="round"/>
</svg>
