<svg width="53" height="54" viewBox="0 0 53 54" fill="none" xmlns="http://www.w3.org/2000/svg">
<circle cx="26.5813" cy="27" r="25.125" stroke="#475569" stroke-width="2.25"/>
<path d="M33.8675 20.3195C33.8675 24.4142 30.6053 27.7336 26.5811 27.7336C22.557 27.7336 19.2948 24.4142 19.2948 20.3195C19.2948 16.2248 22.557 12.9054 26.5811 12.9054C30.6053 12.9054 33.8675 16.2248 33.8675 20.3195Z" stroke="#475569" stroke-width="2.25" stroke-linejoin="round"/>
<path d="M19.242 43.0946H33.8173C36.0438 43.0946 36.9393 42.5351 38.0241 40.6232L39.8613 37.3853C35.8375 35.6791 31.4225 34.7369 26.7912 34.7369C21.9982 34.7369 17.4368 35.746 13.301 37.5668L15.0353 40.6232C16.0881 42.4367 17.1255 43.0946 19.242 43.0946Z" stroke="#475569" stroke-width="2.25" stroke-linejoin="round"/>
</svg>
