<svg width="200" height="186" viewBox="0 0 200 186" fill="none" xmlns="http://www.w3.org/2000/svg">
<g clip-path="url(#clip0_2490_234830)">
<path d="M196.59 43.0992C194.89 40.5992 192.59 38.8992 189.49 37.6992C189.69 40.4992 189.49 42.7992 188.89 44.4992L152.99 162.899C152.39 164.999 150.99 166.599 148.79 167.899C146.59 169.099 144.39 169.799 142.09 169.799H31.3898C21.7898 169.799 16.0898 166.999 14.0898 161.399C13.2898 159.199 13.2898 157.499 14.1898 156.199C15.0898 154.999 16.5898 154.399 18.7898 154.399H122.99C130.39 154.399 135.59 152.999 138.39 150.299C141.19 147.599 144.09 141.399 146.99 131.899L179.89 23.2992C181.69 17.3992 180.89 12.1992 177.69 7.69917C174.49 3.19917 169.89 0.89917 163.99 0.89917H72.6898C71.5398 0.89917 69.9098 1.59917 66.6898 1.59917C64.4898 1.09917 62.5898 0.89917 60.9898 0.99917C59.3898 1.09917 57.9898 1.49917 56.6898 2.39917C55.3898 3.29917 54.2898 4.19917 53.4898 5.19917C52.6898 6.19917 51.9898 7.39917 51.1898 8.99917C50.3898 10.5992 49.7898 11.9992 49.2898 13.2992C48.7898 14.5992 48.1898 15.9992 47.4898 17.4992C46.7898 18.9992 46.1898 20.1992 45.4898 21.1992C44.9898 21.7992 44.2898 22.6992 43.4898 23.6992C42.6898 24.6992 41.8898 25.6992 41.2898 26.4992C40.6898 27.2992 40.3898 27.9992 40.1898 28.6992C39.9898 29.3992 40.0898 30.4992 40.3898 31.8992C40.6898 33.2992 40.7898 34.2992 40.7898 34.9992C40.4898 37.9992 39.3898 41.8992 37.4898 46.5992C35.5898 51.2992 33.8898 54.6992 32.3898 56.6992C32.0898 57.0992 31.1898 57.9992 29.7898 59.3992C28.3898 60.7992 27.4898 61.9992 27.1898 63.0992C26.8898 63.4992 26.8898 64.5992 27.0898 66.4992C27.3898 68.2992 27.4898 69.5992 27.3898 70.2992C27.0898 72.9992 26.0898 76.5992 24.3898 81.0992C22.6898 85.5992 20.9898 89.2992 19.3898 92.0992C19.1898 92.5992 18.4898 93.4992 17.3898 94.8992C16.2898 96.2992 15.5898 97.3992 15.3898 98.2992C15.1898 98.8992 15.2898 100.099 15.4898 101.699C15.6898 103.299 15.6898 104.499 15.3898 105.299C14.7898 108.299 13.5898 111.999 11.7898 116.299C9.98978 120.599 8.18978 124.199 6.38978 127.299C5.88978 128.099 5.28978 128.999 4.38978 130.099C3.58978 131.199 2.88978 132.099 2.38978 132.899C1.88978 133.699 1.58978 134.499 1.38978 135.399C1.28978 135.899 1.38978 136.699 1.78978 137.699C2.08978 138.799 2.18978 139.599 2.18978 140.299C2.08978 141.399 1.98978 142.899 1.68978 144.699C1.48978 146.499 1.28978 147.599 1.28978 147.899C-0.51022 152.699 -0.41022 157.799 1.48978 163.099C3.68978 169.299 7.68978 174.599 13.3898 178.899C19.0898 183.199 25.0898 185.299 31.1898 185.299H141.89C147.09 185.299 151.99 183.599 156.59 180.099C161.19 176.599 164.29 172.299 165.79 167.199L198.79 58.5992C200.59 52.7992 199.79 47.6992 196.59 43.0992V43.0992ZM117.43 100.349C115.53 102.959 113.2 105.339 110.58 107.339C107.96 109.339 105.08 110.919 102.13 111.999C99.1798 113.079 96.1998 113.629 93.3698 113.619H50.1598L56.8298 92.0992H121.65C120.77 94.9292 119.33 97.7292 117.44 100.349H117.43ZM75.4898 31.8692H118.7C121.53 31.8692 124.17 32.4192 126.45 33.4892C128.73 34.5692 130.62 36.1492 132.01 38.1492C133.4 40.1492 134.26 42.5192 134.53 45.1392C134.8 47.7592 134.5 50.5592 133.63 53.3892H68.8198L75.4898 31.8692V31.8692ZM53.1898 61.9892H143.94C145.08 61.9892 146.04 62.4392 146.6 63.2492C147.16 64.0592 147.28 65.1492 146.93 66.2992L142.93 79.2092C142.57 80.3492 141.78 81.4492 140.72 82.2592C139.66 83.0692 138.42 83.5192 137.28 83.5192H46.5298L53.1998 61.9992L53.1898 61.9892Z" fill="#333333"/>
</g>
<defs>
<clipPath id="clip0_2490_234830">
<rect width="199.73" height="184.4" fill="white" transform="translate(0 0.89917)"/>
</clipPath>
</defs>
</svg>
