<svg width="21" height="21" viewBox="0 0 21 21" fill="none" xmlns="http://www.w3.org/2000/svg">
<path fill-rule="evenodd" clip-rule="evenodd" d="M4.21362 16.2939C4.21362 15.8107 4.60537 15.4189 5.08862 15.4189H15.5886C16.0719 15.4189 16.4636 15.8107 16.4636 16.2939C16.4636 16.7772 16.0719 17.1689 15.5886 17.1689H5.08862C4.60537 17.1689 4.21362 16.7772 4.21362 16.2939ZM7.0949 9.55023C7.43661 9.20852 7.99063 9.20852 8.33234 9.55023L9.46362 10.6815L9.46362 4.04395C9.46362 3.5607 9.85537 3.16895 10.3386 3.16895C10.8219 3.16895 11.2136 3.5607 11.2136 4.04395L11.2136 10.6815L12.3449 9.55023C12.6866 9.20852 13.2406 9.20852 13.5823 9.55023C13.9241 9.89194 13.9241 10.446 13.5823 10.7877L10.9573 13.4127C10.7932 13.5768 10.5707 13.6689 10.3386 13.6689C10.1066 13.6689 9.884 13.5768 9.7199 13.4127L7.0949 10.7877C6.7532 10.446 6.7532 9.89193 7.0949 9.55023Z" fill="#22C55E"/>
</svg>
