<svg width="54" height="54" viewBox="0 0 54 54" fill="none" xmlns="http://www.w3.org/2000/svg">
    <circle cx="27.0679" cy="26.9087" r="25.125" stroke="#475569" stroke-width="2.25"/>
    <path transform="translate(10, 8)" d="M19.8779 6.71877L19.0824 7.51426V7.51426L19.8779 6.71877ZM27.4578 14.2987L28.2533 13.5032L27.4578 14.2987ZM15.2678 30.3837C14.6465 30.3837 14.1428 30.8874 14.1428 31.5087C14.1428 32.13 14.6465 32.6337 15.2678 32.6337V30.3837ZM7.14282 24.5087C7.14282 25.13 7.6465 25.6337 8.26782 25.6337C8.88914 25.6337 9.39282 25.13 9.39282 24.5087H7.14282ZM7.47233 30.7132C7.03299 31.1526 7.03299 31.8649 7.47233 32.3042C7.91167 32.7436 8.62398 32.7436 9.06332 32.3042L7.47233 30.7132ZM11.0678 7.43372H18.8879V5.18372H11.0678V7.43372ZM26.7428 15.2886V28.7087H28.9928V15.2886H26.7428ZM19.0824 7.51426L26.6623 15.0942L28.2533 13.5032L20.6734 5.92327L19.0824 7.51426ZM28.9928 15.2886C28.9928 14.6189 28.7268 13.9767 28.2533 13.5032L26.6623 15.0942C26.7138 15.1457 26.7428 15.2157 26.7428 15.2886H28.9928ZM18.8879 7.43372C18.9609 7.43372 19.0308 7.46269 19.0824 7.51426L20.6734 5.92327C20.1998 5.44974 19.5576 5.18372 18.8879 5.18372V7.43372ZM25.0678 32.6337C27.2355 32.6337 28.9928 30.8764 28.9928 28.7087H26.7428C26.7428 29.6338 25.9929 30.3837 25.0678 30.3837V32.6337ZM9.39282 9.10872C9.39282 8.18364 10.1427 7.43372 11.0678 7.43372V5.18372C8.9001 5.18372 7.14282 6.941 7.14282 9.10872H9.39282ZM25.0678 30.3837H15.2678V32.6337H25.0678V30.3837ZM9.39282 24.5087V9.10872H7.14282V24.5087H9.39282ZM21.1428 21.7087C21.1428 23.407 19.7661 24.7837 18.0678 24.7837V27.0337C21.0087 27.0337 23.3928 24.6496 23.3928 21.7087H21.1428ZM14.9928 21.7087C14.9928 20.0104 16.3695 18.6337 18.0678 18.6337V16.3837C15.1269 16.3837 12.7428 18.7678 12.7428 21.7087H14.9928ZM18.0678 18.6337C19.7661 18.6337 21.1428 20.0104 21.1428 21.7087H23.3928C23.3928 18.7678 21.0087 16.3837 18.0678 16.3837V18.6337ZM14.3025 23.8831L7.47233 30.7132L9.06332 32.3042L15.8935 25.4741L14.3025 23.8831ZM18.0678 24.7837C17.2184 24.7837 16.4512 24.4408 15.8935 23.8831L14.3025 25.4741C15.2649 26.4365 16.5977 27.0337 18.0678 27.0337V24.7837ZM15.8935 23.8831C15.3358 23.3254 14.9928 22.5582 14.9928 21.7087H12.7428C12.7428 23.1789 13.3401 24.5117 14.3025 25.4741L15.8935 23.8831Z" fill="#475569"/>
</svg>

