<svg width="21" height="21" viewBox="0 0 21 21" fill="none" xmlns="http://www.w3.org/2000/svg">
<path fill-rule="evenodd" clip-rule="evenodd" d="M4.21362 16.2939C4.21362 15.8107 4.60537 15.4189 5.08862 15.4189H15.5886C16.0719 15.4189 16.4636 15.8107 16.4636 16.2939C16.4636 16.7772 16.0719 17.1689 15.5886 17.1689H5.08862C4.60537 17.1689 4.21362 16.7772 4.21362 16.2939ZM7.0949 7.28766C6.7532 6.94596 6.7532 6.39194 7.0949 6.05023L9.7199 3.42523C9.884 3.26113 10.1066 3.16895 10.3386 3.16895C10.5707 3.16895 10.7932 3.26113 10.9573 3.42523L13.5823 6.05023C13.9241 6.39194 13.9241 6.94596 13.5823 7.28766C13.2406 7.62937 12.6866 7.62937 12.3449 7.28766L11.2136 6.15638L11.2136 12.7939C11.2136 13.2772 10.8219 13.6689 10.3386 13.6689C9.85537 13.6689 9.46362 13.2772 9.46362 12.7939L9.46362 6.15638L8.33234 7.28766C7.99063 7.62937 7.43661 7.62937 7.0949 7.28766Z" fill="#0F172A"/>
</svg>
