<svg width="110" height="94" viewBox="0 0 110 94" fill="none" xmlns="http://www.w3.org/2000/svg">
<path d="M15.2836 93.5049V68.9073H89.7512C89.7444 72.1447 89.097 75.3492 87.8458 78.3376C86.5947 81.326 84.7643 84.0399 82.4593 86.3242C80.1543 88.6086 77.4198 90.4187 74.4119 91.6512C71.4039 92.8838 68.1815 93.5145 64.9287 93.5075L15.2836 93.5049ZM0.390137 59.0689V34.4687H104.645C105.958 34.4659 107.219 34.9826 108.15 35.9051C109.081 36.8276 109.606 38.0804 109.609 39.3879V54.1498C109.606 55.4573 109.081 56.71 108.15 57.6325C107.219 58.555 105.958 59.0717 104.645 59.0689H0.390137ZM15.2836 24.6356V0.0353073H64.9287C68.1816 0.0281972 71.404 0.658887 74.412 1.89136C77.42 3.12384 80.1546 4.93395 82.4596 7.21835C84.7646 9.50274 86.5949 12.2167 87.8461 15.2051C89.0972 18.1936 89.7445 21.3981 89.7512 24.6356H15.2836Z" fill="#22C55E"/>
</svg>
