<svg width="44" height="44" viewBox="0 0 44 44" fill="none" xmlns="http://www.w3.org/2000/svg">
<circle cx="22" cy="22" r="21" stroke="#475569" stroke-width="2"/>
<path d="M26.0479 17.7331C26.0479 20.0079 24.2356 21.852 21.9999 21.852C19.7643 21.852 17.9519 20.0079 17.9519 17.7331C17.9519 15.4582 19.7643 13.6141 21.9999 13.6141C24.2356 13.6141 26.0479 15.4582 26.0479 17.7331Z" stroke="#475569" stroke-width="2" stroke-linejoin="round"/>
<path d="M17.9226 30.3859H26.02C27.257 30.3859 27.7545 30.0751 28.3571 29.0129L29.3778 27.2141C27.1423 26.2662 24.6895 25.7428 22.1166 25.7428C19.4538 25.7428 16.9197 26.3034 14.6221 27.3149L15.5855 29.0129C16.1704 30.0204 16.7468 30.3859 17.9226 30.3859Z" stroke="#475569" stroke-width="2" stroke-linejoin="round"/>
</svg>
