<svg width="104" height="104" viewBox="0 0 104 104" fill="none" xmlns="http://www.w3.org/2000/svg">
<circle cx="52" cy="52" r="50" stroke="#475569" stroke-width="4"/>
<path d="M61.714 41.7604C61.714 47.2194 57.3649 51.6449 51.9999 51.6449C46.6349 51.6449 42.2858 47.2194 42.2858 41.7604C42.2858 36.3014 46.6349 31.8759 51.9999 31.8759C57.3649 31.8759 61.714 36.3014 61.714 41.7604Z" stroke="#475569" stroke-width="4" stroke-linejoin="round"/>
<path d="M42.2154 72.124H61.6471C64.6155 72.124 65.8093 71.3781 67.2556 68.8292L69.7049 64.5124C64.3404 62.2377 58.4543 60.9817 52.2799 60.9817C45.8899 60.9817 39.8087 62.327 34.2949 64.7544L36.607 68.8292C38.0106 71.2469 39.3937 72.124 42.2154 72.124Z" stroke="#475569" stroke-width="4" stroke-linejoin="round"/>
</svg>
