<svg width="358" height="80" viewBox="0 0 358 80" fill="none" xmlns="http://www.w3.org/2000/svg">
<g clip-path="url(#clip0_211_99877)">
<path opacity="0.2" d="M100.826 45.2288C98.9702 41.9932 98.9702 38.0068 100.826 34.7712L117.775 5.22883C119.631 1.99322 123.062 0 126.775 0H232.094C235.807 0 239.237 1.99322 241.093 5.22883L258.042 34.7712C259.898 38.0068 259.898 41.9932 258.042 45.2288L241.093 74.7712C239.237 78.0068 235.807 80 232.094 80H126.775C123.062 80 119.631 78.0068 117.775 74.7712L100.826 45.2288Z" fill="url(#paint0_radial_211_99877)"/>
<path opacity="0.7" d="M140.898 46C138.755 42.2872 138.755 37.7128 140.898 34L154.97 9.62694C157.114 5.91412 161.075 3.62694 165.362 3.62694H193.506C197.793 3.62694 201.755 5.91412 203.898 9.62694L217.97 34C220.114 37.7128 220.114 42.2872 217.97 46L203.898 70.3731C201.755 74.0859 197.793 76.3731 193.506 76.3731H165.362C161.075 76.3731 157.114 74.0859 154.97 70.3731L140.898 46Z" fill="url(#paint1_radial_211_99877)"/>
</g>
<defs>
<radialGradient id="paint0_radial_211_99877" cx="0" cy="0" r="1" gradientUnits="userSpaceOnUse" gradientTransform="translate(119.434 78.75) rotate(-30.9638) scale(145.774 121.873)">
<stop stop-color="#6A7F94"/>
<stop offset="0.50166" stop-color="#D9E4EE"/>
<stop offset="1" stop-color="#9DB0C3"/>
</radialGradient>
<radialGradient id="paint1_radial_211_99877" cx="0" cy="0" r="1" gradientUnits="userSpaceOnUse" gradientTransform="translate(155.234 83.44) rotate(-64.693) scale(94.5101 224.399)">
<stop stop-color="#00D1FF"/>
<stop offset="0.343654" stop-color="#0089EC"/>
<stop offset="0.563086" stop-color="#017CB2"/>
<stop offset="0.950102" stop-color="#00B2FF"/>
</radialGradient>
<clipPath id="clip0_211_99877">
<rect width="358" height="80" fill="white"/>
</clipPath>
</defs>
</svg>