<svg width="72" height="72" viewBox="0 0 72 72" fill="none" xmlns="http://www.w3.org/2000/svg">
<path d="M60.0026 56.4459L48.0001 35.6686L30.0016 66.8345H54.0016L60.0026 56.4459Z" fill="url(#paint0_linear_1923_182736)"/>
<path d="M66.0014 25.2773H42.0016L60.0027 56.4459L72 35.6686L66.0014 25.2773Z" fill="url(#paint1_linear_1923_182736)"/>
<path d="M54.0016 4.5H42.0015L30.0016 25.2773H66.0012L54.0016 4.5Z" fill="url(#paint2_linear_1923_182736)"/>
<path d="M18.002 4.5L12.0007 14.8887L24.0006 35.6686L42.0017 4.5H18.002Z" fill="url(#paint3_linear_1923_182736)"/>
<path d="M6.00171 46.0576L18.0016 66.835H30.0015L42.0014 46.0576H6.00171Z" fill="url(#paint4_linear_1923_182736)"/>
<path d="M12.0004 14.8889L0.000488281 35.6688L6.00172 46.0575H30.0015L12.0004 14.8889Z" fill="url(#paint5_linear_1923_182736)"/>
<defs>
<linearGradient id="paint0_linear_1923_182736" x1="30.8716" y1="62.5337" x2="55.033" y2="49.9648" gradientUnits="userSpaceOnUse">
<stop stop-color="#00B1FF"/>
<stop offset="1" stop-color="#0075A8"/>
</linearGradient>
<linearGradient id="paint1_linear_1923_182736" x1="57.1808" y1="50.2745" x2="56.9541" y2="26.8048" gradientUnits="userSpaceOnUse">
<stop offset="0.24" stop-color="#3F50B9"/>
<stop offset="0.41" stop-color="#3849B2"/>
<stop offset="0.66" stop-color="#26379F"/>
<stop offset="0.95" stop-color="#081980"/>
<stop offset="1" stop-color="#03147A"/>
</linearGradient>
<linearGradient id="paint2_linear_1923_182736" x1="62.4373" y1="27.5213" x2="50.9298" y2="6.13724" gradientUnits="userSpaceOnUse">
<stop offset="0.24" stop-color="#992AA9"/>
<stop offset="1" stop-color="#6A047E"/>
</linearGradient>
<linearGradient id="paint3_linear_1923_182736" x1="42.2717" y1="8.14672" x2="16.7668" y2="21.4199" gradientUnits="userSpaceOnUse">
<stop offset="0.19" stop-color="#FC6C30"/>
<stop offset="1" stop-color="#D84000"/>
</linearGradient>
<linearGradient id="paint4_linear_1923_182736" x1="9.99767" y1="44.2707" x2="21.5645" y2="65.405" gradientUnits="userSpaceOnUse">
<stop offset="0.22" stop-color="#48B04D"/>
<stop offset="1" stop-color="#16791C"/>
</linearGradient>
<linearGradient id="paint5_linear_1923_182736" x1="15.001" y1="16.198" x2="15.001" y2="45.964" gradientUnits="userSpaceOnUse">
<stop offset="0.25" stop-color="#FFED38"/>
<stop offset="1" stop-color="#BFAD00"/>
</linearGradient>
</defs>
</svg>
