<svg width="11" height="12" viewBox="0 0 11 12" fill="none" xmlns="http://www.w3.org/2000/svg">
    <path d="M2.73893 0.878906H0.643066V10.6289H2.73893V6.15632M2.73893 0.878906V6.15632M2.73893 0.878906H5.00935C5.26873 0.878906 5.64194 0.893669 6.04315 0.969433M2.73893 6.15632H2.84301M2.73893 6.15632C2.74434 6.15632 2.74995 6.15632 2.75577 6.15631M4.56368 6.15632H5.0321C5.24348 6.15632 5.62032 6.15632 6.04315 6.0808M4.56368 6.15632H2.84301M4.56368 6.15632C5.82512 6.20267 7.17655 6.41898 7.63666 7.27256C8.34777 8.59177 9.1098 9.87712 9.51228 10.6289H7.14312C7.14312 10.6289 5.46582 7.05865 4.82708 6.61952C4.19354 6.18396 3.25117 6.15756 2.84301 6.15632M4.56368 6.15632C3.88365 6.13133 3.22977 6.15573 2.75577 6.15631M2.84301 6.15632C2.81037 6.15622 2.78115 6.15628 2.75577 6.15631M6.04315 0.969433C7.05142 1.15983 8.23658 1.73549 8.23658 3.4303C8.23658 5.33149 7.01772 5.90674 6.04315 6.0808M6.04315 0.969433V6.0808" stroke="#0F172A" stroke-width="1.25" stroke-linejoin="round"/>
</svg>
