<svg width="170" height="32" viewBox="0 0 170 32" fill="none" xmlns="http://www.w3.org/2000/svg">
<path d="M4.46316 31.4983V24.3055C4.46316 24.1725 4.51679 24.0448 4.61227 23.9507C4.70774 23.8566 4.83723 23.8038 4.97225 23.8038H29.8936C30.0287 23.8038 30.1581 23.8566 30.2536 23.9507C30.3491 24.0448 30.4027 24.1725 30.4027 24.3055C30.4027 26.3462 29.5802 28.3033 28.116 29.7463C26.6518 31.1893 24.666 32 22.5954 32H4.97225C4.83723 32 4.70774 31.9471 4.61227 31.853C4.51679 31.759 4.46316 31.6313 4.46316 31.4983Z" fill="url(#paint0_linear_833_35650)"/>
<path d="M4.46316 7.69448V0.501733C4.46316 0.368665 4.51679 0.241048 4.61227 0.146954C4.70774 0.0528612 4.83723 0 4.97225 0H22.5954C24.666 0 26.6518 0.810666 28.116 2.25366C29.5802 3.69666 30.4027 5.65378 30.4027 7.69448C30.4027 7.82755 30.3491 7.95516 30.2536 8.04926C30.1581 8.14335 30.0287 8.19621 29.8936 8.19621H4.97225C4.83723 8.19621 4.70774 8.14335 4.61227 8.04926C4.51679 7.95516 4.46316 7.82755 4.46316 7.69448Z" fill="url(#paint1_linear_833_35650)"/>
<path d="M0 19.5831V12.3239C0 12.1895 0.0541417 12.0607 0.150515 11.9657C0.246887 11.8708 0.377597 11.8174 0.513889 11.8174H35.4583C35.8672 11.8174 36.2593 11.9775 36.5485 12.2624C36.8376 12.5473 37 12.9338 37 13.3368V18.5702C37 18.9732 36.8376 19.3596 36.5485 19.6446C36.2593 19.9295 35.8672 20.0896 35.4583 20.0896H0.513889C0.377597 20.0896 0.246887 20.0362 0.150515 19.9412C0.0541417 19.8463 0 19.7174 0 19.5831Z" fill="url(#paint2_linear_833_35650)"/>
<path d="M63.6148 20.0782H77.0326V17.6789H65.465C65.1751 17.6834 64.8873 17.6289 64.6188 17.5186C64.3503 17.4083 64.1067 17.2444 63.9025 17.0369C63.6903 16.8319 63.5227 16.5846 63.4105 16.3107C63.2982 16.0369 63.2437 15.7424 63.2505 15.4462V10.9635C63.2439 10.667 63.2984 10.3723 63.4107 10.0982C63.5229 9.82403 63.6904 9.57639 63.9025 9.37095C64.1068 9.16357 64.3505 8.99979 64.619 8.88936C64.8874 8.77893 65.1751 8.7241 65.465 8.72814H80.3344V12.2803H67.0886V14.2372H78.9383C79.2284 14.2328 79.5164 14.2876 79.7849 14.3983C80.0535 14.5091 80.297 14.6735 80.5009 14.8816C80.7137 15.0862 80.8817 15.3334 80.9942 15.6074C81.1067 15.8813 81.1613 16.1759 81.1543 16.4724V21.4918C81.1609 21.7882 81.1063 22.0827 80.9938 22.3566C80.8813 22.6305 80.7134 22.8777 80.5009 23.0825C80.2967 23.2902 80.0531 23.4541 79.7846 23.5646C79.5161 23.675 79.2283 23.7297 78.9383 23.7254H63.6148V20.0782Z" fill="url(#paint3_linear_833_35650)"/>
<path d="M106.719 8.69879L96.0577 8.69859V12.1638H104.802V20.2603H94.2888V6.96687C94.2888 3.518 90.1163 3 90.1163 3V21.487C90.11 21.7838 90.1648 22.0787 90.2773 22.3531C90.3897 22.6274 90.5574 22.8753 90.7697 23.0809C90.9747 23.2885 91.2189 23.4523 91.4879 23.5627C91.7569 23.6731 92.0452 23.7279 92.3356 23.7238H106.719C107.009 23.7283 107.298 23.6738 107.566 23.5633C107.835 23.4528 108.079 23.2888 108.283 23.0809C108.496 22.8755 108.664 22.6277 108.776 22.3533C108.889 22.0789 108.943 21.7839 108.937 21.487V10.9371C108.944 10.6402 108.889 10.3452 108.777 10.0708C108.664 9.79632 108.496 9.54854 108.283 9.34319C108.079 9.13519 107.835 8.97091 107.566 8.86019C107.298 8.74946 107.01 8.69457 106.719 8.69879Z" fill="url(#paint4_linear_833_35650)"/>
<path d="M60.1663 23.0816C60.3792 22.8762 60.5474 22.6285 60.6602 22.3541C60.773 22.0797 60.828 21.7846 60.8217 21.4876V10.9371C60.8281 10.6401 60.7731 10.3449 60.6603 10.0704C60.5474 9.79596 60.3792 9.54816 60.1663 9.34279C59.9617 9.1347 59.7175 8.97037 59.4485 8.85964C59.1794 8.74892 58.8909 8.69408 58.6004 8.69839H44.2181C43.9278 8.69426 43.6397 8.7492 43.3709 8.85992C43.1022 8.97064 42.8583 9.13487 42.6539 9.34279C42.4413 9.54828 42.2734 9.79615 42.1609 10.0706C42.0484 10.3451 41.9938 10.6402 42.0006 10.9371V29C42.0006 29 46.1713 28.4808 46.1713 25.0345V12.1638H56.6848V20.2603H47.9404V23.7254H58.6006C58.8911 23.7297 59.1794 23.675 59.4485 23.5643C59.7175 23.4537 59.9616 23.2895 60.1663 23.0816Z" fill="url(#paint5_linear_833_35650)"/>
<path d="M112.54 8.69859V12.1638H124.765V20.2603H115.612V17.7758H122.454V14.3089H113.452C113.163 14.3046 112.876 14.358 112.607 14.4661C112.338 14.5742 112.093 14.7348 111.886 14.9387C111.671 15.1455 111.501 15.3959 111.389 15.6735C111.276 15.9511 111.223 16.2495 111.233 16.5492V21.487C111.223 21.7865 111.276 22.0846 111.389 22.3618C111.502 22.6391 111.671 22.8892 111.886 23.0957C112.093 23.2997 112.338 23.4603 112.607 23.5681C112.876 23.6759 113.163 23.7288 113.452 23.7238H126.922C127.213 23.7284 127.501 23.6738 127.77 23.5633C128.039 23.4529 128.283 23.2888 128.488 23.0809C128.701 22.8755 128.869 22.6277 128.981 22.3533C129.094 22.0789 129.148 21.7839 129.142 21.487V10.9371C129.148 10.6402 129.094 10.3452 128.981 10.0708C128.869 9.79632 128.701 9.54854 128.488 9.34319C128.283 9.1351 128.039 8.97078 127.77 8.86006C127.501 8.74934 127.213 8.69449 126.922 8.69879" fill="url(#paint6_linear_833_35650)"/>
<path d="M135.764 14.3105V12.1638H148.321V8.70019H133.605C133.312 8.6945 133.021 8.74844 132.749 8.8588C132.478 8.96916 132.231 9.13366 132.024 9.34246C131.816 9.55126 131.653 9.80006 131.543 10.074C131.434 10.3479 131.38 10.6414 131.385 10.9367V15.5388C131.375 15.8383 131.428 16.1366 131.541 16.4139C131.654 16.6912 131.823 16.9412 132.039 17.1475C132.245 17.3519 132.49 17.5128 132.759 17.6209C133.028 17.7291 133.315 17.7822 133.605 17.7774H144.946V20.2601H131.749V23.7254H147.104C147.394 23.7297 147.683 23.6748 147.952 23.5641C148.221 23.4534 148.465 23.289 148.669 23.0809C148.882 22.8756 149.05 22.6278 149.163 22.3534C149.275 22.079 149.33 21.7839 149.323 21.487V16.5506C149.33 16.2535 149.275 15.9581 149.163 15.6833C149.05 15.4086 148.882 15.1605 148.669 14.9549C148.465 14.7468 148.221 14.5825 147.952 14.4718C147.683 14.361 147.394 14.3062 147.104 14.3105" fill="url(#paint7_linear_833_35650)"/>
<path d="M158.382 14.6779V18.1136H167.78C168.071 18.1181 168.359 18.0633 168.628 17.9526C168.897 17.8419 169.141 17.6774 169.346 17.4692C169.559 17.2641 169.727 17.0164 169.84 16.7419C169.952 16.4674 170.007 16.1722 169.999 15.8753V10.9371C170.006 10.6402 169.952 10.3451 169.839 10.0706C169.727 9.79616 169.559 9.5484 169.346 9.34319C169.141 9.13497 168.897 8.97057 168.628 8.85984C168.359 8.7491 168.071 8.69433 167.78 8.69879H153.917C153.626 8.69442 153.338 8.7492 153.069 8.85986C152.8 8.97051 152.555 9.13477 152.351 9.34279C152.138 9.54824 151.97 9.79604 151.858 10.0704C151.745 10.3449 151.691 10.6399 151.697 10.9367V21.487C151.691 21.7839 151.745 22.0789 151.858 22.3533C151.97 22.6277 152.138 22.8755 152.351 23.0809C152.555 23.289 152.8 23.4534 153.069 23.5641C153.338 23.6748 153.626 23.7297 153.917 23.7254H169.848V20.2292H156.076V12.1638H165.622V14.6779H158.382Z" fill="url(#paint8_linear_833_35650)"/>
<path d="M83.3366 8.69859L83.3918 23.7835H87.5449V12.2088C87.5449 8.73973 83.3366 8.69859 83.3366 8.69859Z" fill="url(#paint9_linear_833_35650)"/>
<defs>
<linearGradient id="paint0_linear_833_35650" x1="29" y1="27.5" x2="4" y2="8.03811e-08" gradientUnits="userSpaceOnUse">
<stop offset="0.194801" stop-color="#4FC355"/>
<stop offset="1" stop-color="#026F08"/>
</linearGradient>
<linearGradient id="paint1_linear_833_35650" x1="29" y1="27.5" x2="4" y2="8.03811e-08" gradientUnits="userSpaceOnUse">
<stop offset="0.194801" stop-color="#4FC355"/>
<stop offset="1" stop-color="#026F08"/>
</linearGradient>
<linearGradient id="paint2_linear_833_35650" x1="29" y1="27.5" x2="4" y2="8.03811e-08" gradientUnits="userSpaceOnUse">
<stop offset="0.194801" stop-color="#4FC355"/>
<stop offset="1" stop-color="#026F08"/>
</linearGradient>
<linearGradient id="paint3_linear_833_35650" x1="36" y1="22" x2="183.196" y2="32.3908" gradientUnits="userSpaceOnUse">
<stop offset="0.0814312" stop-color="#4E5357"/>
<stop offset="0.957955" stop-color="#B9C2CB"/>
</linearGradient>
<linearGradient id="paint4_linear_833_35650" x1="36" y1="22" x2="183.196" y2="32.3908" gradientUnits="userSpaceOnUse">
<stop offset="0.0814312" stop-color="#4E5357"/>
<stop offset="0.957955" stop-color="#B9C2CB"/>
</linearGradient>
<linearGradient id="paint5_linear_833_35650" x1="36" y1="22" x2="183.196" y2="32.3908" gradientUnits="userSpaceOnUse">
<stop offset="0.0814312" stop-color="#4E5357"/>
<stop offset="0.957955" stop-color="#B9C2CB"/>
</linearGradient>
<linearGradient id="paint6_linear_833_35650" x1="36" y1="22" x2="183.196" y2="32.3908" gradientUnits="userSpaceOnUse">
<stop offset="0.0814312" stop-color="#4E5357"/>
<stop offset="0.957955" stop-color="#B9C2CB"/>
</linearGradient>
<linearGradient id="paint7_linear_833_35650" x1="36" y1="22" x2="183.196" y2="32.3908" gradientUnits="userSpaceOnUse">
<stop offset="0.0814312" stop-color="#4E5357"/>
<stop offset="0.957955" stop-color="#B9C2CB"/>
</linearGradient>
<linearGradient id="paint8_linear_833_35650" x1="36" y1="22" x2="183.196" y2="32.3908" gradientUnits="userSpaceOnUse">
<stop offset="0.0814312" stop-color="#4E5357"/>
<stop offset="0.957955" stop-color="#B9C2CB"/>
</linearGradient>
<linearGradient id="paint9_linear_833_35650" x1="36" y1="22" x2="183.196" y2="32.3908" gradientUnits="userSpaceOnUse">
<stop offset="0.0814312" stop-color="#4E5357"/>
<stop offset="0.957955" stop-color="#B9C2CB"/>
</linearGradient>
</defs>
</svg>
