<svg width="350" height="160" viewBox="0 0 350 160" fill="none" xmlns="http://www.w3.org/2000/svg">
<g clip-path="url(#clip0_1912_177976)">
<path opacity="0.2" d="M50.9283 92C46.6411 84.5743 46.6411 75.4256 50.9283 68L80.5719 16.6558C84.8591 9.23014 92.7821 4.65576 101.356 4.65576H248.644C257.218 4.65576 265.141 9.23014 269.428 16.6558L299.072 68C303.359 75.4256 303.359 84.5743 299.072 92L269.428 143.344C265.141 150.77 257.218 155.344 248.644 155.344H101.356C92.7821 155.344 84.8591 150.77 80.5719 143.344L50.9283 92Z" fill="url(#paint0_radial_1912_177976)"/>
<path opacity="0.7" d="M110.504 87.9138C107.712 83.0074 107.712 76.9926 110.504 72.0862L135.898 27.4644C138.743 22.4655 144.052 19.3782 149.804 19.3782H200.196C205.948 19.3782 211.257 22.4655 214.102 27.4644L239.496 72.0862C242.288 76.9926 242.288 83.0074 239.496 87.9138L214.102 132.536C211.257 137.535 205.948 140.622 200.196 140.622H149.804C144.052 140.622 138.743 137.535 135.898 132.536L110.504 87.9138Z" fill="url(#paint1_radial_1912_177976)"/>
</g>
<defs>
<radialGradient id="paint0_radial_1912_177976" cx="0" cy="0" r="1" gradientUnits="userSpaceOnUse" gradientTransform="translate(79.5347 152.99) rotate(-35.3865) scale(243.953 218.256)">
<stop stop-color="#6A7F94"/>
<stop offset="0.50166" stop-color="#D9E4EE"/>
<stop offset="1" stop-color="#9DB0C3"/>
</radialGradient>
<radialGradient id="paint1_radial_1912_177976" cx="0" cy="0" r="1" gradientUnits="userSpaceOnUse" gradientTransform="translate(192.806 150.381) rotate(-90) scale(140 350.196)">
<stop stop-color="#FFA049"/>
<stop offset="0.309208" stop-color="#FF6B00"/>
<stop offset="0.681709" stop-color="#ED4B00"/>
<stop offset="1" stop-color="#EE8000"/>
</radialGradient>
<clipPath id="clip0_1912_177976">
<rect width="350" height="160" fill="white"/>
</clipPath>
</defs>
</svg>
