<svg viewBox="0 0 22 32" fill="none" xmlns="http://www.w3.org/2000/svg">
<path fill-rule="evenodd" clip-rule="evenodd" d="M14.0978 0.740467C14.9016 0.940882 15.3907 1.75497 15.1903 2.55879L8.30679 30.1672C8.10638 30.971 7.29228 31.4601 6.48847 31.2597C5.68465 31.0593 5.19549 30.2452 5.39591 29.4414L12.2794 1.83303C12.4799 1.02921 13.294 0.540053 14.0978 0.740467ZM5.74904 3.1105C6.09004 2.9056 6.49847 2.84456 6.88448 2.9408L9.39433 3.56658C10.1981 3.76699 10.6873 4.58109 10.4869 5.38491C10.2865 6.18873 9.47238 6.67788 8.66856 6.47747L7.61416 6.21457L3.33371 23.3825L4.38812 23.6454C5.19194 23.8458 5.68109 24.6599 5.48068 25.4637C5.28027 26.2675 4.46617 26.7567 3.66235 26.5563L1.1525 25.9305C0.766495 25.8343 0.434529 25.5886 0.229635 25.2476C0.0247396 24.9066 -0.0363007 24.4982 0.0599418 24.1122L5.06615 4.03336C5.16239 3.64736 5.40804 3.31539 5.74904 3.1105ZM15.1056 6.53647C15.306 5.73265 16.1201 5.24349 16.9239 5.44391C20.5 6.33554 22.6762 9.95736 21.7846 13.5335C21.2798 15.5582 19.8998 17.1341 18.1485 17.9586C19.3077 19.5089 19.7863 21.5482 19.2815 23.5729C18.3899 27.149 14.768 29.3252 11.1919 28.4336C10.3881 28.2332 9.89893 27.4191 10.0993 26.6153C10.2998 25.8115 11.1139 25.3223 11.9177 25.5227C13.8862 26.0135 15.8798 24.8156 16.3706 22.8471C16.8614 20.8786 15.6635 18.885 13.695 18.3942C12.8912 18.1938 12.402 17.3797 12.6024 16.5759C12.8029 15.7721 13.617 15.2829 14.4208 15.4833C16.3893 15.9741 18.3829 14.7762 18.8737 12.8077C19.3645 10.8392 18.1666 8.84559 16.1981 8.3548C15.3943 8.15438 14.9051 7.34029 15.1056 6.53647Z" fill="currentColor"/>
</svg>
