<svg viewBox="0 0 22 30" fill="none" xmlns="http://www.w3.org/2000/svg">
<path fill-rule="evenodd" clip-rule="evenodd" d="M11.0033 0.165039C11.4568 0.165162 11.8859 0.370433 12.1705 0.723435L17.297 7.08048C17.4316 7.24738 17.5288 7.4412 17.5821 7.64887L21.35 22.3161C21.5117 22.9455 21.2497 23.6075 20.7011 23.9557L11.8068 29.6015C11.3162 29.9128 10.69 29.9129 10.1994 29.6017L1.29939 23.956C0.750499 23.6078 0.48833 22.9457 0.650062 22.3161L4.41795 7.64887C4.47137 7.44093 4.56879 7.24689 4.70365 7.07985L9.83576 0.722803C10.1206 0.369955 10.5498 0.164916 11.0033 0.165039ZM5.85869 14.0978L3.82697 22.0066L8.62602 25.0509L5.85869 14.0978ZM13.3789 25.0502L18.1732 22.007L16.1422 14.1009L13.3789 25.0502ZM14.4917 8.38092L11.0022 4.05378L7.50865 8.38122L11.0021 22.2083L14.4917 8.38092Z" fill="currentColor"/>
</svg>
