<svg viewBox="0 0 24 30" fill="none" xmlns="http://www.w3.org/2000/svg">
<path fill-rule="evenodd" clip-rule="evenodd" d="M15.0801 3.18384C13.6777 3.18384 12.355 4.44274 12.355 6.23347V13.5664H14.8279C15.6563 13.5664 16.3279 14.238 16.3279 15.0664C16.3279 15.8948 15.6563 16.5664 14.8279 16.5664H12.355V22.5084C12.355 23.7439 12.0897 25.4983 11.1645 26.9977C10.1842 28.5865 8.49331 29.8162 5.94123 29.8162C3.69783 29.8162 2.25512 28.8408 1.40762 27.7805C1.00224 27.2734 0.750052 26.7704 0.597817 26.3931C0.521066 26.2029 0.467716 26.0396 0.431995 25.9166C0.414086 25.8549 0.400461 25.8029 0.390444 25.762C0.385431 25.7416 0.381308 25.7239 0.377994 25.7091L0.373615 25.6892L0.371857 25.681L0.371083 25.6773L0.370721 25.6755C0.370548 25.6747 0.370377 25.6738 1.83965 25.3718L0.370377 25.6738C0.203566 24.8624 0.726155 24.0693 1.53761 23.9025C2.34242 23.7371 3.12911 24.2498 3.3047 25.0499C3.30584 25.0543 3.30852 25.0646 3.31298 25.08C3.32402 25.118 3.34528 25.1848 3.3799 25.2706C3.45041 25.4454 3.56806 25.6785 3.75104 25.9075C4.08026 26.3194 4.68834 26.8162 5.94123 26.8162C7.36207 26.8162 8.12808 26.2057 8.61142 25.4224C9.14991 24.5497 9.35502 23.4002 9.35502 22.5084V16.5664H6.62476C5.79633 16.5664 5.12476 15.8948 5.12476 15.0664C5.12476 14.238 5.79633 13.5664 6.62476 13.5664H9.35502V6.23347C9.35502 2.99881 11.8156 0.183838 15.0801 0.183838C16.8724 0.183838 18.4465 1.05196 19.4784 2.35945C19.9917 3.00973 19.8806 3.95296 19.2303 4.4662C18.58 4.97945 17.6368 4.86836 17.1235 4.21808C16.6055 3.56171 15.8688 3.18384 15.0801 3.18384ZM23.0977 3.59884C23.7446 4.11635 23.8495 5.06029 23.332 5.70718L20.9109 8.73359C20.3934 9.38048 19.4494 9.48536 18.8025 8.96785C18.1556 8.45034 18.0508 7.5064 18.5683 6.8595L20.9894 3.8331C21.5069 3.18621 22.4509 3.08132 23.0977 3.59884Z" fill="currentColor"/>
</svg>
