<svg viewBox="0 0 32 32" fill="none" xmlns="http://www.w3.org/2000/svg">
<path fill-rule="evenodd" clip-rule="evenodd" d="M25.1977 3.15964C24.6132 2.13265 23.5329 1.5 22.3639 1.5H9.63615C8.46707 1.5 7.3868 2.13265 6.80226 3.15963L0.438406 14.3404C-0.146134 15.3674 -0.146136 16.6326 0.438404 17.6596L6.80226 28.8404C7.3868 29.8673 8.46707 30.5 9.63615 30.5H22.3639C23.5329 30.5 24.6132 29.8674 25.1977 28.8404L31.5616 17.6596C32.1461 16.6327 32.1461 15.3674 31.5616 14.3404L25.1977 3.15964ZM16.2655 16.2911C18.9764 16.2911 21.174 14.062 21.174 11.3122C21.174 8.56246 18.9764 6.33333 16.2655 6.33333C13.5547 6.33333 11.3571 8.56246 11.3571 11.3122C11.3571 14.062 13.5547 16.2911 16.2655 16.2911ZM7.14741 22.4444C10.4715 20.5386 12.1748 20.0278 16.2655 20.0278C20.3562 20.0278 22.089 20.5386 25.413 22.4444L23.482 25.6181C22.8975 26.6451 21.8172 27.2778 20.6481 27.2778H11.9124C10.7433 27.2778 9.66301 26.6451 9.07847 25.6181L7.14741 22.4444Z" fill="currentColor"/>
</svg>